<svg width="821" height="462" viewBox="0 0 821 462" fill="none" xmlns="http://www.w3.org/2000/svg">
<circle cx="771.641" cy="118" r="118" fill="url(#paint0_linear_1623_19)" fill-opacity="0.7"/>
<circle cx="50.6406" cy="139.5" r="50.5" fill="url(#paint1_linear_1623_19)" fill-opacity="0.5"/>
<circle cx="225.141" cy="299" r="31" fill="url(#paint2_linear_1623_19)" fill-opacity="0.5"/>
<circle cx="518.641" cy="444" r="18" fill="url(#paint3_linear_1623_19)" fill-opacity="0.2"/>
<path d="M445.641 179.5C445.641 185.851 440.492 191 434.141 191C427.789 191 422.641 185.851 422.641 179.5C422.641 173.149 427.789 168 434.141 168C440.492 168 445.641 173.149 445.641 179.5Z" fill="url(#paint4_linear_1623_19)" fill-opacity="0.2"/>
<defs>
<linearGradient id="paint0_linear_1623_19" x1="771.641" y1="0" x2="771.641" y2="236" gradientUnits="userSpaceOnUse">
<stop stop-color=" #bddcf070"/>
<stop offset="1" stop-color="#e7f2fa70" stop-opacity="0"/>
</linearGradient>
<linearGradient id="paint1_linear_1623_19" x1="50.6406" y1="89" x2="50.6406" y2="190" gradientUnits="userSpaceOnUse">
<stop stop-color=" #bddcf070"/>
<stop offset="1" stop-color="#EEEEEE70" stop-opacity="0"/>
</linearGradient>
<linearGradient id="paint2_linear_1623_19" x1="225.141" y1="268" x2="225.141" y2="330" gradientUnits="userSpaceOnUse">
<stop stop-color=" #bddcf070"/>
<stop offset="1" stop-color="#EEEEEE70" stop-opacity="0"/>
</linearGradient>
<linearGradient id="paint3_linear_1623_19" x1="518.641" y1="426" x2="518.641" y2="462" gradientUnits="userSpaceOnUse">
<stop stop-color=" #bddcf070"/>
<stop offset="1" stop-color="#e7f2fa70" stop-opacity="0"/>
</linearGradient>
<linearGradient id="paint4_linear_1623_19" x1="434.141" y1="168" x2="434.141" y2="191" gradientUnits="userSpaceOnUse">
<stop stop-color=" #bddcf070"/>
<stop offset="1" stop-color="#e7f2fa70" stop-opacity="0"/>
</linearGradient>
</defs>
</svg>
