<svg width="635" height="618" viewBox="0 0 635 618" fill="none" xmlns="http://www.w3.org/2000/svg">
<circle cx="413.823" cy="132.25" r="132.25" fill="url(#paint0_linear_883_16)" fill-opacity="0.7"/>
<circle cx="40.5" cy="214" r="50.5" fill="url(#paint1_linear_883_16)" fill-opacity="0.3"/>
<circle cx="312.573" cy="483.5" r="31" fill="url(#paint2_linear_883_16)" fill-opacity="0.3"/>
<circle cx="616.573" cy="594.5" r="18" fill="url(#paint3_linear_883_16)" fill-opacity="0.4"/>
<path d="M117.073 606C117.073 612.351 111.925 617.5 105.573 617.5C99.2222 617.5 94.0735 612.351 94.0735 606C94.0735 599.649 99.2222 594.5 105.573 594.5C111.925 594.5 117.073 599.649 117.073 606Z" fill="url(#paint4_linear_883_16)" fill-opacity="0.3"/>
<defs>
<linearGradient id="paint0_linear_883_16" x1="413.823" y1="0" x2="413.823" y2="264.5" gradientUnits="userSpaceOnUse">
<stop stop-color="#307AFF" stop-opacity="0.79"/>
<stop offset="1" stop-color="white" stop-opacity="0"/>
</linearGradient>
<linearGradient id="paint1_linear_883_16" x1="40.5" y1="163.5" x2="40.5" y2="264.5" gradientUnits="userSpaceOnUse">
<stop stop-color="#6BA0FF" stop-opacity="0.79"/>
<stop offset="1" stop-color="white" stop-opacity="0"/>
</linearGradient>
<linearGradient id="paint2_linear_883_16" x1="312.573" y1="452.5" x2="312.573" y2="514.5" gradientUnits="userSpaceOnUse">
<stop stop-color="#6BA0FF" stop-opacity="0.79"/>
<stop offset="1" stop-color="white" stop-opacity="0"/>
</linearGradient>
<linearGradient id="paint3_linear_883_16" x1="616.573" y1="576.5" x2="616.573" y2="612.5" gradientUnits="userSpaceOnUse">
<stop stop-color="#2170FF" stop-opacity="0.79"/>
<stop offset="1" stop-color="white" stop-opacity="0"/>
</linearGradient>
<linearGradient id="paint4_linear_883_16" x1="105.573" y1="594.5" x2="105.573" y2="617.5" gradientUnits="userSpaceOnUse">
<stop stop-color="#6BA0FF" stop-opacity="0.79"/>
<stop offset="1" stop-color="white" stop-opacity="0"/>
</linearGradient>
</defs>
</svg>
